<svg xmlns="http://www.w3.org/2000/svg" width="251.17" height="35" viewBox="0 0 251.17 35"><rect class="svg__rect" x="0" y="0" width="117.03" height="35" fill="#415054"/><rect class="svg__rect" x="115.03" y="0" width="136.14" height="35" fill="#2D79C7"/><path class="svg__text" d="M17.33 22L14.22 22L14.22 13.47L17.14 13.47Q18.59 13.47 19.34 14.05Q20.10 14.63 20.10 15.78L20.10 15.78Q20.10 16.36 19.78 16.83Q19.47 17.30 18.86 17.56L18.86 17.56Q19.55 17.75 19.93 18.26Q20.31 18.78 20.31 19.51L20.31 19.51Q20.31 20.71 19.53 21.36Q18.76 22 17.33 22L17.33 22ZM15.70 18.15L15.70 20.82L17.35 20.82Q18.04 20.82 18.44 20.47Q18.83 20.13 18.83 19.51L18.83 19.51Q18.83 18.18 17.47 18.15L17.47 18.15L15.70 18.15ZM15.70 14.66L15.70 17.06L17.15 17.06Q17.84 17.06 18.23 16.75Q18.62 16.43 18.62 15.86L18.62 15.86Q18.62 15.23 18.26 14.95Q17.90 14.66 17.14 14.66L17.14 14.66L15.70 14.66ZM24.64 19.16L24.64 19.16L24.64 13.47L26.12 13.47L26.12 19.18Q26.12 20.03 26.55 20.48Q26.98 20.93 27.83 20.93L27.83 20.93Q29.54 20.93 29.54 19.13L29.54 19.13L29.54 13.47L31.02 13.47L31.02 19.17Q31.02 20.53 30.15 21.32Q29.28 22.12 27.83 22.12L27.83 22.12Q26.36 22.12 25.50 21.33Q24.64 20.55 24.64 19.16ZM37.15 22L35.67 22L35.67 13.47L37.15 13.47L37.15 22ZM47.32 22L41.96 22L41.96 13.47L43.44 13.47L43.44 20.82L47.32 20.82L47.32 22ZM53.12 14.66L50.49 14.66L50.49 13.47L57.25 13.47L57.25 14.66L54.59 14.66L54.59 22L53.12 22L53.12 14.66ZM68.37 22L66.40 13.47L67.87 13.47L69.20 19.88L70.82 13.47L72.07 13.47L73.68 19.89L74.99 13.47L76.46 13.47L74.49 22L73.07 22L71.45 15.77L69.79 22L68.37 22ZM82.10 22L80.62 22L80.62 13.47L82.10 13.47L82.10 22ZM88.59 14.66L85.95 14.66L85.95 13.47L92.72 13.47L92.72 14.66L90.06 14.66L90.06 22L88.59 22L88.59 14.66ZM97.96 22L96.48 22L96.48 13.47L97.96 13.47L97.96 17.02L101.77 17.02L101.77 13.47L103.25 13.47L103.25 22L101.77 22L101.77 18.21L97.96 18.21L97.96 22Z" fill="#FFFFFF"/><path class="svg__text" d="M131.01 15.48L128.43 15.48L128.43 13.60L135.95 13.60L135.95 15.48L133.38 15.48L133.38 22L131.01 22L131.01 15.48ZM142.45 18.95L139.24 13.60L141.75 13.60L143.74 16.94L145.74 13.60L148.04 13.60L144.82 18.99L144.82 22L142.45 22L142.45 18.95ZM154.50 22L152.12 22L152.12 13.60L155.97 13.60Q157.10 13.60 157.94 13.98Q158.78 14.35 159.24 15.06Q159.70 15.76 159.70 16.71L159.70 16.71Q159.70 17.66 159.24 18.35Q158.78 19.05 157.94 19.42Q157.10 19.80 155.97 19.80L155.97 19.80L154.50 19.80L154.50 22ZM154.50 15.47L154.50 17.93L155.82 17.93Q156.55 17.93 156.92 17.61Q157.30 17.29 157.30 16.71L157.30 16.71Q157.30 16.12 156.92 15.80Q156.55 15.47 155.82 15.47L155.82 15.47L154.50 15.47ZM171.19 22L164.45 22L164.45 13.60L171.04 13.60L171.04 15.44L166.81 15.44L166.81 16.85L170.54 16.85L170.54 18.63L166.81 18.63L166.81 20.17L171.19 20.17L171.19 22ZM175.41 21.24L175.41 21.24L176.19 19.49Q176.75 19.86 177.50 20.09Q178.24 20.32 178.96 20.32L178.96 20.32Q180.33 20.32 180.34 19.64L180.34 19.64Q180.34 19.28 179.95 19.11Q179.56 18.93 178.69 18.74L178.69 18.74Q177.74 18.53 177.10 18.30Q176.47 18.06 176.01 17.55Q175.56 17.03 175.56 16.16L175.56 16.16Q175.56 15.39 175.98 14.77Q176.40 14.15 177.23 13.79Q178.07 13.43 179.27 13.43L179.27 13.43Q180.10 13.43 180.91 13.62Q181.71 13.80 182.33 14.17L182.33 14.17L181.59 15.93Q180.39 15.28 179.26 15.28L179.26 15.28Q178.55 15.28 178.23 15.49Q177.91 15.70 177.91 16.04L177.91 16.04Q177.91 16.37 178.29 16.54Q178.68 16.71 179.53 16.89L179.53 16.89Q180.49 17.10 181.12 17.33Q181.75 17.56 182.21 18.07Q182.67 18.58 182.67 19.46L182.67 19.46Q182.67 20.21 182.25 20.83Q181.84 21.44 180.99 21.80Q180.15 22.17 178.95 22.17L178.95 22.17Q177.93 22.17 176.97 21.92Q176.01 21.67 175.41 21.24ZM186.82 17.80L186.82 17.80Q186.82 16.54 187.42 15.54Q188.02 14.55 189.07 13.99Q190.12 13.43 191.44 13.43L191.44 13.43Q192.59 13.43 193.52 13.84Q194.44 14.25 195.05 15.02L195.05 15.02L193.54 16.39Q192.73 15.40 191.56 15.40L191.56 15.40Q190.88 15.40 190.34 15.70Q189.81 16 189.51 16.54Q189.22 17.09 189.22 17.80L189.22 17.80Q189.22 18.51 189.51 19.05Q189.81 19.60 190.34 19.90Q190.88 20.20 191.56 20.20L191.56 20.20Q192.73 20.20 193.54 19.22L193.54 19.22L195.05 20.58Q194.44 21.35 193.52 21.76Q192.59 22.17 191.44 22.17L191.44 22.17Q190.12 22.17 189.07 21.61Q188.02 21.05 187.42 20.05Q186.82 19.06 186.82 17.80ZM201.97 22L199.59 22L199.59 13.60L203.43 13.60Q204.58 13.60 205.41 13.98Q206.25 14.35 206.71 15.06Q207.17 15.76 207.17 16.71L207.17 16.71Q207.17 17.62 206.74 18.30Q206.31 18.98 205.52 19.36L205.52 19.36L207.33 22L204.79 22L203.26 19.77L201.97 19.77L201.97 22ZM201.97 15.47L201.97 17.93L203.29 17.93Q204.02 17.93 204.39 17.61Q204.76 17.29 204.76 16.71L204.76 16.71Q204.76 16.12 204.39 15.79Q204.02 15.47 203.29 15.47L203.29 15.47L201.97 15.47ZM214.33 22L211.95 22L211.95 13.60L214.33 13.60L214.33 22ZM221.88 22L219.50 22L219.50 13.60L223.35 13.60Q224.49 13.60 225.33 13.98Q226.17 14.35 226.62 15.06Q227.08 15.76 227.08 16.71L227.08 16.71Q227.08 17.66 226.62 18.35Q226.17 19.05 225.33 19.42Q224.49 19.80 223.35 19.80L223.35 19.80L221.88 19.80L221.88 22ZM221.88 15.47L221.88 17.93L223.20 17.93Q223.93 17.93 224.31 17.61Q224.68 17.29 224.68 16.71L224.68 16.71Q224.68 16.12 224.31 15.80Q223.93 15.47 223.20 15.47L223.20 15.47L221.88 15.47ZM233.63 15.48L231.04 15.48L231.04 13.60L238.57 13.60L238.57 15.48L236.00 15.48L236.00 22L233.63 22L233.63 15.48Z" fill="#FFFFFF" x="128.03"/></svg>